<svg width="114" height="37" viewBox="0 0 114 37" fill="none" xmlns="http://www.w3.org/2000/svg">
<path d="M12 28.5C9.56667 28.5 7.45 28.05 5.65 27.15C3.85 26.2167 2.45 24.9333 1.45 23.3C0.483333 21.6333 1.19209e-07 19.7 1.19209e-07 17.5V11C1.19209e-07 8.8 0.483333 6.88333 1.45 5.25C2.45 3.58333 3.85 2.3 5.65 1.4C7.45 0.466666 9.56667 -1.19209e-07 12 -1.19209e-07C14.4667 -1.19209e-07 16.5833 0.466666 18.35 1.4C20.15 2.3 21.5333 3.58333 22.5 5.25C23.5 6.88333 24 8.8 24 11V17.5C24 19.7 23.5 21.6333 22.5 23.3C21.5333 24.9333 20.15 26.2167 18.35 27.15C16.5833 28.05 14.4667 28.5 12 28.5ZM12 22C13.4667 22 14.5833 21.6167 15.35 20.85C16.1167 20.05 16.5 18.9333 16.5 17.5V11C16.5 9.53333 16.1167 8.41667 15.35 7.65C14.5833 6.88333 13.4667 6.5 12 6.5C10.5667 6.5 9.45 6.88333 8.65 7.65C7.88333 8.41667 7.5 9.53333 7.5 11V17.5C7.5 18.9333 7.88333 20.05 8.65 20.85C9.45 21.6167 10.5667 22 12 22ZM31.2805 28V0.499999H38.5305V5.7C38.9305 3.93333 39.7971 2.55 41.1305 1.55C42.4971 0.516666 44.1971 -1.19209e-07 46.2305 -1.19209e-07C48.9971 -1.19209e-07 51.1638 0.933333 52.7305 2.8C54.2971 4.66667 55.0805 7.23333 55.0805 10.5V13.25H47.5805V11C47.5805 9.56667 47.1971 8.46667 46.4305 7.7C45.6638 6.9 44.5805 6.5 43.1805 6.5C41.7805 6.5 40.6971 6.95 39.9305 7.85C39.1638 8.71667 38.7805 9.96667 38.7805 11.6V28H31.2805ZM64.2109 37V31H71.9609C73.3609 31 74.4276 30.65 75.1609 29.95C75.9276 29.25 76.3109 28.2833 76.3109 27.05V26L76.3609 21.9C75.6943 23.3667 74.7443 24.5 73.5109 25.3C72.2776 26.1 70.8109 26.5 69.1109 26.5C66.3443 26.5 64.1276 25.5333 62.4609 23.6C60.7943 21.6667 59.9609 19.05 59.9609 15.75V10.75C59.9609 7.48333 60.7943 4.88333 62.4609 2.95C64.1276 0.983332 66.3443 -1.19209e-07 69.1109 -1.19209e-07C70.8443 -1.19209e-07 72.3276 0.416666 73.5609 1.25C74.7943 2.05 75.7443 3.18333 76.4109 4.65V0.499999H83.6609V27.3C83.6609 30.3 82.6276 32.6667 80.5609 34.4C78.5276 36.1333 75.7443 37 72.2109 37H64.2109ZM71.8109 20C73.1776 20 74.2443 19.6167 75.0109 18.85C75.7776 18.05 76.1609 16.9333 76.1609 15.5V11C76.1609 9.56667 75.7776 8.46667 75.0109 7.7C74.2443 6.9 73.1776 6.5 71.8109 6.5C70.4109 6.5 69.3276 6.9 68.5609 7.7C67.8276 8.46667 67.4609 9.56667 67.4609 11V15.5C67.4609 16.9333 67.8276 18.05 68.5609 18.85C69.3276 19.6167 70.4109 20 71.8109 20ZM98.3914 28.5C95.6581 28.5 93.4914 27.7167 91.8914 26.15C90.2914 24.55 89.4914 22.4667 89.4914 19.9C89.4914 17.1333 90.4747 14.95 92.4414 13.35C94.4081 11.75 97.1747 10.95 100.741 10.95H106.141V9.2C106.141 8.16667 105.775 7.36667 105.041 6.8C104.341 6.2 103.325 5.9 101.991 5.9C100.725 5.9 99.7081 6.15 98.9414 6.65C98.2081 7.15 97.8081 7.88333 97.7414 8.85H90.6414C90.7414 6.15 91.8081 4 93.8414 2.4C95.8747 0.8 98.6247 -1.19209e-07 102.091 -1.19209e-07C105.725 -1.19209e-07 108.558 0.833332 110.591 2.5C112.625 4.16667 113.641 6.5 113.641 9.5V28H106.391V23.25C106.058 24.8833 105.175 26.1667 103.741 27.1C102.341 28.0333 100.558 28.5 98.3914 28.5ZM101.041 22.5C102.608 22.5 103.841 22.1167 104.741 21.35C105.675 20.55 106.141 19.5167 106.141 18.25V15.45H100.891C99.5581 15.45 98.5247 15.7833 97.7914 16.45C97.0914 17.0833 96.7414 17.9167 96.7414 18.95C96.7414 19.9833 97.1081 20.8333 97.8414 21.5C98.6081 22.1667 99.6747 22.5 101.041 22.5Z" fill="#1D1D1D"/>
</svg>
